<svg xmlns="http://www.w3.org/2000/svg" viewBox="0 0 36 36"><path fill="#EEEEEE" d="M36 27a4 4 0 0 1-4 4H4a4 4 0 0 1-4-4V9a4 4 0 0 1 4-4h28a4 4 0 0 1 4 4v18z"/><path fill="#DD2E44" d="M32 5H17v1.857h18.368A3.989 3.989 0 0 0 32 5zM17 10.571h19V9c0-.098-.022-.19-.029-.286H17v1.857zM17 12.428h19v1.857H17zM17 16.143h19V18H17z"/><path fill="#010066" d="M18 5H4a4 4 0 0 0-4 4v11.857h18V5z"/><path fill="#FFCC4D" d="M11.551 17.258A5.958 5.958 0 0 1 8 18.43a6 6 0 0 1 0-12c1.331 0 2.556.438 3.551 1.172a5.234 5.234 0 1 0 0 9.656z"/><path fill="#FFCC4D" d="m12.588 10.879-1.003-1.315.402 1.604-1.475-.749 1.058 1.271-1.653-.035 1.505.686-1.505.686 1.653-.035-1.058 1.271 1.475-.749-.402 1.604 1.003-1.314.334 1.62.334-1.62 1.003 1.314-.402-1.604 1.475.749-1.059-1.271 1.654.035-1.505-.686 1.505-.686-1.654.035 1.059-1.271-1.475.749.402-1.604-1.003 1.315-.334-1.62z"/><path fill="#DD2E44" d="M0 19.857h36v1.857H0zM0 23.571h36v1.857H0zM.632 29.142h34.736a3.965 3.965 0 0 0 .603-1.857H.029c.049.68.256 1.313.603 1.857z"/></svg>
